<svg xmlns="http://www.w3.org/2000/svg" viewBox="0 0 315 80" width="315" height="80">
	<style>
		tspan { white-space:pre }
		.shp0 { fill: #0b65fe } 
		.shp1 { fill: #ffffff } 
	</style>
	<g id="Layer">
		<path id="Layer" class="shp0" d="M14.6 18.8L24.4 51.7L34.8 18.8L47.7 18.8L60.7 47.7L82.5 1L95.2 1L60.7 73.5L41.7 35.7L41.5 35.7L31.4 66.1L17.4 66.1L1.3 18.8C1.2 18.8 14.6 18.8 14.6 18.8Z" />
		<path id="Layer" fill-rule="evenodd" class="shp0" d="M130.3 43.3L130.3 45.1L97.9 45C97.9 52 100.8 56.1 107.4 56.7C112.4 56.7 117.5 54.4 118.6 50.8L129.4 50.9C127.1 60.3 117.7 66.2 109.2 66.2C93.7 65.6 86.1 57.2 85.5 42.7C86.3 26.8 95.7 18.7 108.4 18.7C120.8 18.6 130.2 27.1 130.3 43.3ZM97.6 37.2L117.7 37.3C117.2 31.1 114.3 28.4 107.9 27.8C101.6 28.3 98.3 31 97.6 37.2Z" />
		<path id="Layer" fill-rule="evenodd" class="shp1" d="M212.5 43.3L212.5 45.1L180 45C180 52 182.9 56.1 189.5 56.7C194.5 56.7 199.6 54.4 200.7 50.8L211.5 50.9C209.2 60.3 199.8 66.2 191.3 66.2C175.8 65.6 168.2 57.2 167.6 42.7C168.4 26.8 177.8 18.7 190.5 18.7C202.9 18.6 212.4 27.1 212.5 43.3ZM179.8 37.2L199.9 37.3C199.4 31.1 196.5 28.4 190.1 27.8C183.7 28.3 180.4 31 179.8 37.2Z" />
		<path id="Layer" class="shp1" d="M166.5 18.6L166.5 30.4C153.2 28.3 150.1 35.2 149.9 42.7L149.9 65L137.5 65L137.5 19.8L149.4 19.8L149.4 28.5C152.5 21.9 156.5 18.6 166.5 18.6Z" />
		<path id="Layer" fill-rule="evenodd" class="shp1" d="M251.8 65.1L251.9 59.2C249.3 63.7 243.7 65.9 237.2 65.9C225.8 65.2 219.1 57.8 218.1 43.6C217.9 26.9 226 18.5 239.1 18.7C242 18.7 248.6 20.5 251.4 25.2L251.4 2.8L263.8 2.8L263.8 65.1L251.8 65.1ZM251.8 42.7L251.8 40.4C251.4 33.6 248.1 27.7 241.5 27.7C234.5 27.7 230.2 33.6 230.1 42.2C230.3 50.6 234.4 56.4 241.5 56.4C247.6 56.6 251.8 51.5 251.8 42.7Z" />
		<path id="Layer" class="shp0" d="M301.3 19.9C300 24.2 291.6 49.8 291.4 50.7L281.2 19.9L268 19.9L283 59.6C283.4 60.5 283.9 61.9 284.1 63C284.2 64.1 284.2 65.2 283.9 66.8C283.1 71.4 275.9 69.9 272.3 70L272.4 80C295.2 81.9 292.7 74.4 297.3 64.7L313.9 19.8L301.3 19.8L301.3 19.9Z" />
	</g>
</svg>