<?xml version="1.0" encoding="utf-8"?>
<!-- Generator: Adobe Illustrator 23.0.4, SVG Export Plug-In . SVG Version: 6.00 Build 0)  -->
<svg version="1.1" id="圖層_1" xmlns="http://www.w3.org/2000/svg" xmlns:xlink="http://www.w3.org/1999/xlink" x="0px" y="0px"
	 viewBox="0 0 50 48" style="enable-background:new 0 0 50 48;" xml:space="preserve">
<style type="text/css">
	.st0{fill:#0B65FE;}
</style>
<title>weredy</title>
<path class="st0" d="M6.7,17.6L10.1,29l3.6-11.4h4.5l4.5,10.1l7.5-16.2h4.4L22.7,36.6l-6.6-13.2h-0.1L12.5,34H7.6L2,17.6H6.7z"/>
<path class="st0" d="M48,25.9v1.2L36.4,27c0.2,2.2,1.4,3.4,3.8,3.6c1.8,0,2.8-0.6,3.2-1.9l4.5,0.1c-0.8,3.3-3.5,5.3-7.6,5.2
	c-5.4-0.2-8.2-3-8.4-8.2c0.3-5.7,2.9-8.6,7.9-8.8C45.1,17.2,47.9,20.1,48,25.9z M36.3,24h7.2c-0.2-2.1-1.3-3.3-3.5-3.5
	C37.8,20.6,36.6,21.8,36.3,24z"/>
</svg>
