<?xml version="1.0" encoding="utf-8"?>
<!-- Generator: Adobe Illustrator 23.0.4, SVG Export Plug-In . SVG Version: 6.00 Build 0)  -->
<svg version="1.1" id="圖層_1" xmlns="http://www.w3.org/2000/svg" xmlns:xlink="http://www.w3.org/1999/xlink" x="0px" y="0px"
	 viewBox="0 0 70 70" style="enable-background:new 0 0 70 70;" xml:space="preserve">
<style type="text/css">
	.st0{fill:#0B65FE;}
</style>
<title>weredy</title>
<path class="st0" d="M9.2,26L14,42.1L19.1,26h6.3l6.4,14.2l10.6-22.9h6.2L31.8,52.8l-9.3-18.6h-0.1l-5,14.9h-6.9L2.6,26
	C2.6,26,9.2,26,9.2,26z"/>
<path class="st0" d="M67.4,37.7v1.7l-16.3-0.1c0.3,3.1,2,4.8,5.3,5.1c2.5,0,4-0.9,4.5-2.7l6.4,0.1c-1.1,4.7-5,7.5-10.7,7.4
	c-7.6-0.3-11.6-4.2-11.9-11.5c0.4-8,4.1-12.1,11.2-12.4C63.4,25.5,67.3,29.6,67.4,37.7z M51,35L61.2,35c-0.3-3-1.9-4.6-5-4.9
	C53,30.3,51.3,31.9,51,35z"/>
</svg>
