<?xml version="1.0" encoding="utf-8"?>
<!-- Generator: Adobe Illustrator 23.0.4, SVG Export Plug-In . SVG Version: 6.00 Build 0)  -->
<svg version="1.1" id="圖層_1" xmlns="http://www.w3.org/2000/svg" xmlns:xlink="http://www.w3.org/1999/xlink" x="0px" y="0px"
	 viewBox="0 0 57 57" style="enable-background:new 0 0 57 57;" xml:space="preserve">
<style type="text/css">
	.st0{fill:#0B65FE;}
</style>
<title>weredy</title>
<path class="st0" d="M7.1,21l4,13.3L15.3,21h5.2l5.3,11.8l8.8-19h5.1L25.9,43.2l-7.7-15.4h-0.1l-4.1,12.3H8.2L1.7,21H7.1z"/>
<path class="st0" d="M55.3,30.7v1.4L41.8,32c0.2,2.6,1.7,4,4.4,4.2c2.1,0,3.3-0.7,3.7-2.2l5.3,0.1c-0.9,3.9-4.1,6.2-8.9,6.1
	c-6.3-0.2-9.6-3.5-9.9-9.5c0.3-6.6,3.4-10,9.3-10.3C52,20.6,55.2,24,55.3,30.7z M41.7,28.5h8.4c-0.2-2.5-1.6-3.8-4.1-4.1
	C43.4,24.6,42,25.9,41.7,28.5z"/>
</svg>
