<svg xmlns="http://www.w3.org/2000/svg" viewBox="0 0 315 80" width="315" height="80">
	<style>
		tspan { white-space:pre }
		.shp0 { fill: #0b65fe } 
		.shp1 { fill: #00274c } 
	</style>
	<g id="Layer">
		<path id="Layer" class="shp0" d="M13.6 18.8L23.4 51.7L33.8 18.8L46.7 18.8L59.7 47.7L81.5 1L94.2 1L59.7 73.5L40.7 35.7L40.5 35.7L30.4 66.1L16.4 66.1L0.3 18.8C0.2 18.8 13.6 18.8 13.6 18.8Z" />
		<path id="Layer" fill-rule="evenodd" class="shp0" d="M129.3 43.3L129.3 45.1L96.9 45C96.9 52 99.8 56.1 106.4 56.7C111.4 56.7 116.5 54.4 117.6 50.8L128.4 50.9C126.1 60.3 116.7 66.2 108.2 66.2C92.7 65.6 85.1 57.2 84.5 42.7C85.3 26.8 94.7 18.7 107.4 18.7C119.8 18.6 129.2 27.1 129.3 43.3ZM96.6 37.2L116.7 37.3C116.2 31.1 113.3 28.4 106.9 27.8C100.6 28.3 97.3 31 96.6 37.2Z" />
		<path id="Layer" fill-rule="evenodd" class="shp1" d="M211.5 43.3L211.5 45.1L179 45C179 52 181.9 56.1 188.5 56.7C193.5 56.7 198.6 54.4 199.7 50.8L210.5 50.9C208.2 60.3 198.8 66.2 190.3 66.2C174.8 65.6 167.2 57.2 166.6 42.7C167.4 26.8 176.8 18.7 189.5 18.7C201.9 18.6 211.4 27.1 211.5 43.3ZM178.8 37.2L198.9 37.3C198.4 31.1 195.5 28.4 189.1 27.8C182.7 28.3 179.4 31 178.8 37.2Z" />
		<path id="Layer" class="shp1" d="M165.5 18.6L165.5 30.4C152.2 28.3 149.1 35.2 148.9 42.7L148.9 65L136.5 65L136.5 19.8L148.4 19.8L148.4 28.5C151.5 21.9 155.5 18.6 165.5 18.6Z" />
		<path id="Layer" fill-rule="evenodd" class="shp1" d="M250.8 65.1L250.9 59.2C248.3 63.7 242.7 65.9 236.2 65.9C224.8 65.2 218.1 57.8 217.1 43.6C216.9 26.9 225 18.5 238.1 18.7C241 18.7 247.6 20.5 250.4 25.2L250.4 2.8L262.8 2.8L262.8 65.1L250.8 65.1ZM250.8 42.7L250.8 40.4C250.4 33.6 247.1 27.7 240.5 27.7C233.5 27.7 229.2 33.6 229.1 42.2C229.3 50.6 233.4 56.4 240.5 56.4C246.6 56.6 250.8 51.5 250.8 42.7Z" />
		<path id="Layer" class="shp0" d="M300.3 19.9C299 24.2 290.6 49.8 290.4 50.7L280.2 19.9L267 19.9L282 59.6C282.4 60.5 282.9 61.9 283.1 63C283.2 64.1 283.2 65.2 282.9 66.8C282.1 71.4 274.9 69.9 271.3 70L271.4 80C294.2 81.9 291.7 74.4 296.3 64.7L312.9 19.8L300.3 19.8L300.3 19.9Z" />
	</g>
</svg>