<?xml version="1.0" encoding="utf-8"?>
<!-- Generator: Adobe Illustrator 23.0.6, SVG Export Plug-In . SVG Version: 6.00 Build 0)  -->
<svg version="1.1" id="圖層_2" xmlns="http://www.w3.org/2000/svg" xmlns:xlink="http://www.w3.org/1999/xlink" x="0px" y="0px"
	 viewBox="0 0 534 79.6" style="enable-background:new 0 0 534 79.6;" xml:space="preserve">
<style type="text/css">
	.st0{fill:#0B65FE;}
	.st1{fill:#00274C;}
</style>
<g>
	<path class="st0" d="M134.6,17.8l9.8,32.9l10.4-32.9h12.9l13,28.9L202.5,0h12.7l-34.5,72.5l-19-37.8h-0.2l-10.1,30.4h-14
		l-16.1-47.3C121.2,17.8,134.6,17.8,134.6,17.8z"/>
	<path class="st0" d="M250.3,42.3v1.8L217.9,44c0,7,2.9,11.1,9.5,11.7c5,0,10.1-2.3,11.2-5.9l10.8,0.1c-2.3,9.4-11.7,15.3-20.2,15.3
		c-15.5-0.6-23.1-9-23.7-23.5c0.8-15.9,10.2-24,22.9-24C240.8,17.6,250.2,26.1,250.3,42.3z M217.6,36.2l20.1,0.1
		c-0.5-6.2-3.4-8.9-9.8-9.5C221.6,27.3,218.3,30,217.6,36.2z"/>
	<path class="st1" d="M332.5,42.3v1.8L300,44c0,7,2.9,11.1,9.5,11.7c5,0,10.1-2.3,11.2-5.9l10.8,0.1c-2.3,9.4-11.7,15.3-20.2,15.3
		c-15.5-0.6-23.1-9-23.7-23.5c0.8-15.9,10.2-24,22.9-24C322.9,17.6,332.4,26.1,332.5,42.3z M299.8,36.2l20.1,0.1
		c-0.5-6.2-3.4-8.9-9.8-9.5C303.7,27.3,300.4,30,299.8,36.2z"/>
	<path class="st1" d="M286.5,17.6v11.8c-13.3-2.1-16.4,4.8-16.6,12.3v22.3h-12.4V18.8h11.9v8.7C272.5,20.9,276.5,17.6,286.5,17.6z"
		/>
	<path class="st1" d="M385,64.1h-13.2l0.1-5.9c-2.6,4.5-8.2,6.7-14.7,6.7c-11.4-0.7-18.1-8.1-19.1-22.3c-0.2-16.7,7.9-25.1,21-24.9
		c2.9,0,9.5,1.8,12.3,6.5V1.8h12.4v62.3H385z M371.8,41.7v-2.3c-0.4-6.8-3.7-12.7-10.3-12.7c-7,0-11.3,5.9-11.4,14.5
		c0.2,8.4,4.3,14.2,11.4,14.2C367.6,55.6,371.8,50.5,371.8,41.7z"/>
	<path class="st0" d="M421.3,18.9c-1.3,4.3-9.7,29.9-9.9,30.8l-10.2-30.8h-13.2l15,39.7c0.4,0.9,0.9,2.3,1.1,3.4
		c0.1,1.1,0.1,2.2-0.2,3.8c-0.8,4.6-8,3.1-11.6,3.2l0.1,10c22.8,1.9,20.3-5.6,24.9-15.3l16.6-44.9H421.3z"/>
</g>
</svg>
