<?xml version="1.0" encoding="utf-8"?>
<!-- Generator: Adobe Illustrator 21.0.0, SVG Export Plug-In . SVG Version: 6.00 Build 0)  -->
<svg version="1.1" id="Réteg_1" xmlns="http://www.w3.org/2000/svg" xmlns:xlink="http://www.w3.org/1999/xlink" x="0px" y="0px"
	 viewBox="0 0 426.7 512" style="enable-background:new 0 0 426.7 512;" xml:space="preserve">
<path d="M213.3,512c-44.1,0-80-35.9-80-80c0-8.8,7.2-16,16-16s16,7.2,16,16c0,26.5,21.5,48,48,48c26.5,0,48-21.5,48-48
	c0-8.8,7.2-16,16-16s16,7.2,16,16C293.3,476.1,257.4,512,213.3,512z"/>
<path d="M389.3,448h-352C16.7,448,0,431.3,0,410.7c0-10.9,4.8-21.3,13.1-28.4C45.5,354.9,64,315,64,272.8v-59.5
	C64,131,131,64,213.3,64c82.3,0,149.3,67,149.3,149.3v59.5c0,42.2,18.5,82.1,50.7,109.3c8.5,7.3,13.3,17.6,13.3,28.5
	C426.7,431.3,409.9,448,389.3,448z M213.3,96C148.6,96,96,148.6,96,213.3v59.5c0,51.6-22.6,100.4-62.1,133.8c-0.8,0.6-1.9,2-1.9,4.1
	c0,2.9,2.4,5.3,5.3,5.3h352c2.9,0,5.3-2.4,5.3-5.3c0-2.1-1.2-3.5-1.9-4.1c-39.5-33.4-62.1-82.2-62.1-133.8v-59.5
	C330.7,148.6,278,96,213.3,96z"/>
<path d="M213.3,96c-8.8,0-16-7.2-16-16V16c0-8.8,7.2-16,16-16s16,7.2,16,16v64C229.3,88.8,222.2,96,213.3,96z"/>
</svg>
