<?xml version="1.0" encoding="utf-8"?>
<!-- Generator: Adobe Illustrator 21.0.0, SVG Export Plug-In . SVG Version: 6.00 Build 0)  -->
<svg version="1.1" id="Réteg_1" xmlns="http://www.w3.org/2000/svg" xmlns:xlink="http://www.w3.org/1999/xlink" x="0px" y="0px"
	 viewBox="0 0 469.3 512" style="enable-background:new 0 0 469.3 512;" xml:space="preserve">
<style type="text/css">
	.st0{fill:#FFA000;}
	.st1{fill:#FFC107;}
</style>
<path class="st0" d="M305,426.7c0,38.8-31.5,70.3-70.3,70.3c-38.8,0-70.3-31.5-70.3-70.3c0-38.8,31.5-70.3,70.3-70.3
	C273.5,356.4,305,387.8,305,426.7z"/>
<path class="st1" d="M434.8,382.1C402.5,354.9,384,315,384,272.8v-59.5C384,131,317,64,234.7,64c-82.3,0-149.3,67-149.3,149.3v59.5
	c0,42.2-18.5,82.1-50.9,109.5c-8.3,7.1-13.1,17.4-13.1,28.4c0,20.6,16.7,37.3,37.3,37.3h352c20.6,0,37.3-16.7,37.3-37.3
	C448,399.7,443.2,389.4,434.8,382.1z"/>
<path d="M453.3,229.3c-8.8,0-16-7.2-16-16c0-61.3-23.8-118.8-67.2-162.2c-6.3-6.3-6.3-16.4,0-22.6s16.4-6.3,22.6,0
	c49.3,49.4,76.5,115,76.5,184.8C469.3,222.2,462.2,229.3,453.3,229.3z"/>
<path d="M16,229.3c-8.8,0-16-7.2-16-16C0,143.5,27.2,77.9,76.5,28.5c6.3-6.3,16.4-6.3,22.6,0s6.3,16.4,0,22.6
	C55.9,94.5,32,152.1,32,213.3C32,222.2,24.8,229.3,16,229.3z"/>
<path d="M234.7,512c-44.1,0-80-35.9-80-80c0-8.8,7.2-16,16-16s16,7.2,16,16c0,26.5,21.5,48,48,48c26.5,0,48-21.5,48-48
	c0-8.8,7.2-16,16-16s16,7.2,16,16C314.7,476.1,278.8,512,234.7,512z"/>
<path d="M410.7,448h-352c-20.6,0-37.3-16.7-37.3-37.3c0-10.9,4.8-21.3,13.1-28.4c32.4-27.4,50.9-67.3,50.9-109.5v-59.5
	C85.3,131,152.3,64,234.7,64C317,64,384,131,384,213.3v59.5c0,42.2,18.5,82.1,50.7,109.3c8.5,7.3,13.3,17.6,13.3,28.5
	C448,431.3,431.3,448,410.7,448z M234.7,96c-64.7,0-117.3,52.6-117.3,117.3v59.5c0,51.6-22.6,100.4-62.1,133.8
	c-0.7,0.6-1.9,2-1.9,4.1c0,2.9,2.4,5.3,5.3,5.3h352c2.9,0,5.3-2.4,5.3-5.3c0-2.1-1.2-3.5-1.9-4.1c-39.5-33.4-62.1-82.2-62.1-133.8
	v-59.5C352,148.6,299.4,96,234.7,96z"/>
<path d="M234.7,96c-8.8,0-16-7.2-16-16V16c0-8.8,7.2-16,16-16s16,7.2,16,16v64C250.7,88.8,243.5,96,234.7,96z"/>
</svg>
