<svg xmlns="http://www.w3.org/2000/svg" xmlns:xlink="http://www.w3.org/1999/xlink" version="1.1" x="0px" y="0px" viewBox="0 0 512 512" style="enable-background:new 0 0 512 512;" xml:space="preserve" width="512px" height="512px"><g><g>
	<g>
		<path d="M153.122,186.283c0-7.263-5.922-13.17-13.201-13.17H77.979c-7.28,0-13.202,5.907-13.202,13.17v43.392    c0,7.263,5.922,13.171,13.202,13.171h61.942c7.279,0,13.201-5.908,13.201-13.171V186.283z M132.953,222.678H84.945V193.28h48.008    V222.678z" data-original="#000000" class="active-path" data-old_color="#000000" fill="#B0B3B5"/>
		<path d="M193.277,242.846h61.971c7.265,0,13.174-5.908,13.174-13.171v-43.392c0-7.263-5.909-13.17-13.174-13.17h-61.971    c-7.263,0-13.172,5.907-13.172,13.17v43.392C180.105,236.938,186.015,242.846,193.277,242.846z M200.274,193.28h47.979v29.397    h-47.979V193.28z" data-original="#000000" class="active-path" data-old_color="#000000" fill="#B0B3B5"/>
		<path d="M452.38,273.31V89.054c0-16.003-13.027-29.021-29.041-29.021h-41.203V43.084c0-5.568-4.516-10.084-10.085-10.084h-76.31    c-5.569,0-10.084,4.516-10.084,10.084v16.949H168.764V43.084c0-5.568-4.516-10.084-10.085-10.084H82.342    c-5.569,0-10.084,4.516-10.084,10.084v16.949H29.099c-16.015,0-29.042,13.018-29.042,29.021v48.812    C0.021,138.215,0,138.568,0,138.927s0.021,0.713,0.057,1.061v300.113c0,16.003,13.027,29.021,29.042,29.021h135.305    c5.569,0,10.085-4.515,10.085-10.084c0-5.569-4.516-10.084-10.085-10.084H29.099c-4.892,0-8.873-3.971-8.873-8.854v-291.09    h411.985v116.467c-9.251-2.56-18.991-3.938-29.048-3.938c-60.012,0-108.835,48.776-108.835,108.731    c0,30.92,12.987,58.867,33.798,78.684h-81.577c-5.569,0-10.084,4.515-10.084,10.084c0,5.569,4.515,10.084,10.084,10.084h111.315    c13.8,6.337,29.143,9.877,45.299,9.877C463.176,479,512,430.225,512,370.272C512,328.002,487.728,291.291,452.38,273.31z     M305.826,53.169h56.141v33.924h-56.141V53.169z M92.426,53.169h56.169v33.924H92.426V53.169z M20.226,128.844v-39.79    c0-4.883,3.981-8.853,8.873-8.853h43.159v16.975c0,5.569,4.515,10.084,10.084,10.084h76.337c5.569,0,10.085-4.515,10.085-10.084    V80.201h116.893v16.975c0,5.569,4.515,10.084,10.084,10.084h76.31c5.569,0,10.085-4.515,10.085-10.084V80.201h41.203    c4.892,0,8.872,3.97,8.872,8.853v39.79H20.226z M413.248,458.256v-6.096c0-5.569-4.516-10.084-10.085-10.084    c-5.569,0-10.084,4.515-10.084,10.084v6.096c-40.845-4.642-73.353-37.106-78.004-77.901h6.112c5.569,0,10.085-4.515,10.085-10.083    c0-5.569-4.516-10.084-10.085-10.084h-6.112c4.651-40.795,37.159-73.263,78.004-77.902v6.097c0,5.569,4.515,10.084,10.084,10.084    c5.569,0,10.085-4.515,10.085-10.084v-6.097c40.845,4.64,73.355,37.107,78.005,77.902h-6.112c-5.57,0-10.085,4.515-10.085,10.084    c0,5.568,4.515,10.083,10.085,10.083h6.112C486.602,421.149,454.093,453.614,413.248,458.256z" data-original="#000000" class="active-path" data-old_color="#000000" fill="#B0B3B5"/>
		<path d="M153.122,274.853c0-7.263-5.922-13.17-13.201-13.17H77.979c-7.28,0-13.202,5.907-13.202,13.17v43.392    c0,7.263,5.922,13.17,13.202,13.17h61.942c7.279,0,13.201-5.907,13.201-13.17V274.853z M132.953,311.246H84.945V281.85h48.008    V311.246z" data-original="#000000" class="active-path" data-old_color="#000000" fill="#B0B3B5"/>
		<path d="M180.105,318.215c0,7.278,5.909,13.199,13.172,13.199h61.971c7.265,0,13.174-5.921,13.174-13.199v-43.362    c0-7.279-5.909-13.199-13.174-13.199h-61.971c-7.263,0-13.172,5.92-13.172,13.199V318.215z M200.274,281.82h47.979v29.426h-47.979    V281.82z" data-original="#000000" class="active-path" data-old_color="#000000" fill="#B0B3B5"/>
		<path d="M139.921,350.225H77.979c-7.28,0-13.202,5.92-13.202,13.195v43.367c0,7.275,5.922,13.194,13.202,13.194h61.942    c7.279,0,13.201-5.919,13.201-13.194V363.42C153.122,356.145,147.2,350.225,139.921,350.225z M132.953,399.815H84.945v-29.422    h48.008V399.815z" data-original="#000000" class="active-path" data-old_color="#000000" fill="#B0B3B5"/>
		<path d="M268.422,406.787v-43.397c0-7.26-5.909-13.166-13.174-13.166h-61.971c-7.263,0-13.172,5.906-13.172,13.166v43.397    c0,7.26,5.909,13.167,13.172,13.167h61.971C262.513,419.954,268.422,414.047,268.422,406.787z M248.253,399.785h-47.979v-29.393    h47.979V399.785z" data-original="#000000" class="active-path" data-old_color="#000000" fill="#B0B3B5"/>
		<path d="M306.991,242.846h61.971c7.265,0,13.174-5.908,13.174-13.171v-43.392c0-7.263-5.909-13.17-13.174-13.17h-61.971    c-7.264,0-13.173,5.907-13.173,13.17v43.392C293.818,236.938,299.728,242.846,306.991,242.846z M313.987,193.28h47.979v29.397    h-47.979V193.28z" data-original="#000000" class="active-path" data-old_color="#000000" fill="#B0B3B5"/>
		<path d="M403.163,324.267c-5.569,0-10.084,4.515-10.084,10.085v38.73l-15.434,15.417c-3.939,3.935-3.943,10.32-0.007,14.261    c1.97,1.972,4.552,2.957,7.135,2.957c2.579,0,5.158-0.983,7.127-2.951l18.391-18.37c1.894-1.891,2.957-4.457,2.957-7.134v-42.91    C413.248,328.781,408.732,324.267,403.163,324.267z" data-original="#000000" class="active-path" data-old_color="#000000" fill="#B0B3B5"/>
		<path d="M206.822,448.955h-0.198c-5.569,0-10.084,4.515-10.084,10.084c0,5.569,4.515,10.084,10.084,10.084h0.198    c5.569,0,10.085-4.515,10.085-10.084C216.907,453.47,212.392,448.955,206.822,448.955z" data-original="#000000" class="active-path" data-old_color="#000000" fill="#B0B3B5"/>
	</g>
</g></g> </svg>
