<svg version="1.1" id="Capa_16" xmlns="http://www.w3.org/2000/svg" xmlns:xlink="http://www.w3.org/1999/xlink" x="0px" y="0px"
	 viewBox="0 0 512 512" style="enable-background:new 0 0 512 512;" xml:space="preserve">
<style type="text/css">
	.setting-st0{fill:#B0B3B5;}
</style>
<g>
	<g>
		<path class="setting-st0" d="M409.7,185.2c-21.3,0-38.6-17.3-38.6-38.6c0-21.3,17.3-38.6,38.6-38.6s38.6,17.3,38.6,38.6
			C448.3,167.8,431,185.2,409.7,185.2z M409.7,127.9c-10.3,0-18.6,8.4-18.6,18.6s8.4,18.6,18.6,18.6s18.6-8.4,18.6-18.6
			S420,127.9,409.7,127.9z"/>
	</g>
	<g>
		<path class="setting-st0" d="M377.9,236.8c-3.9,0-7.7-1-11.1-3l-11.2-6.5c-10.7-6.2-14.3-19.8-8.2-30.5l6.7-11.6c-1.1-1.5-2-3.1-3-4.7
			c-0.9-1.6-1.8-3.2-2.6-4.9h-13.4c-12.3,0-22.3-10-22.3-22.3v-13c0-12.3,10-22.3,22.3-22.3h13.4c1.6-3.4,3.4-6.6,5.5-9.6l-6.7-11.6
			c-6.2-10.7-2.5-24.4,8.2-30.5l11.2-6.5c10.7-6.2,24.4-2.5,30.5,8.2l6.7,11.6c3.7-0.3,7.4-0.3,11.1,0l6.7-11.6
			c6.2-10.7,19.8-14.3,30.5-8.2l11.2,6.5c5.2,3,8.9,7.8,10.4,13.6c1.5,5.8,0.8,11.8-2.2,17l-6.7,11.6c1.1,1.5,2.1,3.1,3,4.7
			c0.9,1.6,1.8,3.2,2.6,4.9H484c12.3,0,22.3,10,22.3,22.3v13c0,12.3-10,22.3-22.3,22.3h-13.4c-1.6,3.4-3.4,6.6-5.5,9.6l6.7,11.6
			c3,5.2,3.8,11.2,2.2,17c-1.5,5.8-5.2,10.6-10.4,13.6l-11.2,6.5c-10.7,6.2-24.4,2.5-30.5-8.2l-6.7-11.6c-3.7,0.3-7.4,0.3-11.1,0
			l-6.7,11.6c-3,5.2-7.8,8.9-13.6,10.4C381.8,236.5,379.9,236.8,377.9,236.8z M335.1,137.9c-1.3,0-2.3,1.1-2.3,2.3v13
			c0,1.3,1,2.3,2.3,2.3h16c6.4,0,12.2,3.8,14.7,9.7c0.8,1.8,1.6,3.5,2.6,5.2c1,1.7,2.1,3.3,3.2,4.9c3.9,5.1,4.3,12,1,17.6l-8,13.9
			c-0.6,1.1-0.3,2.6,0.9,3.2l11.2,6.5c0.7,0.4,1.3,0.3,1.8,0.2c0.4-0.1,1-0.4,1.4-1.1l8-13.9c3.2-5.6,9.4-8.7,15.8-7.9
			c3.9,0.5,7.8,0.5,11.6,0c6.4-0.8,12.5,2.3,15.8,7.9l8,13.9c0.6,1.1,2.1,1.5,3.2,0.9l11.2-6.5c0.7-0.4,1-1,1.1-1.4
			c0.1-0.4,0.2-1.1-0.2-1.8l-8-13.8c-3.2-5.6-2.8-12.5,1-17.6c2.3-3.1,4.3-6.5,5.8-10.1c2.5-5.9,8.3-9.7,14.7-9.7h16
			c1.3,0,2.3-1.1,2.3-2.3v-13c0-1.3-1.1-2.3-2.3-2.3h-16c-6.4,0-12.2-3.8-14.7-9.7c-0.8-1.8-1.6-3.5-2.6-5.2s-2.1-3.3-3.2-4.9
			c-3.9-5.1-4.3-12-1-17.6l8-13.9c0.4-0.7,0.3-1.3,0.2-1.8c-0.1-0.4-0.4-1-1.1-1.4l-11.2-6.5c-1.1-0.6-2.6-0.3-3.2,0.9l-8,13.9
			c-3.2,5.6-9.4,8.7-15.8,7.9c-3.9-0.5-7.8-0.5-11.6,0c-6.3,0.8-12.5-2.3-15.8-7.9l-8-13.8c-0.6-1.1-2.1-1.5-3.2-0.9l-11.2,6.5
			c-1.1,0.6-1.5,2.1-0.9,3.2l8,13.8c3.2,5.6,2.8,12.5-1,17.6c-2.3,3.1-4.3,6.5-5.8,10.1c-2.5,5.9-8.3,9.7-14.7,9.7H335.1z"/>
	</g>
</g>
<g>
	<g>
		<path class="setting-st0" d="M356.2,425.2c-8.9,0-17.6-2.3-25.5-6.9c-11.9-6.8-20.3-17.9-23.9-31.1s-1.7-27,5.1-38.9
			c6.8-11.9,17.9-20.3,31.1-23.9c13.2-3.5,27-1.7,38.9,5.1c11.9,6.8,20.3,17.9,23.9,31.1s1.7,27-5.1,38.9s-17.9,20.3-31.1,23.9
			C365.2,424.6,360.7,425.2,356.2,425.2z M356.4,342.7c-2.7,0-5.4,0.4-8.1,1.1c-8.1,2.2-14.8,7.3-19,14.6
			c-8.6,14.9-3.5,34.1,11.4,42.7c14.9,8.6,34.1,3.5,42.7-11.4c4.2-7.2,5.3-15.6,3.1-23.7s-7.3-14.8-14.6-19
			C367.1,344.1,361.8,342.7,356.4,342.7z"/>
	</g>
	<g>
		<path class="setting-st0" d="M364.8,500.8h-17.4c-14.7,0-26.6-11.9-26.6-26.6v-20.3c-5.7-2.5-11.1-5.7-16.2-9.4L287,454.7
			c-12.7,7.3-29,3-36.3-9.7l-8.7-15.1c-3.6-6.2-4.5-13.3-2.7-20.2c1.8-6.9,6.2-12.6,12.4-16.1l17.6-10.1c-0.3-3.1-0.5-6.2-0.5-9.3
			c0-3.1,0.2-6.2,0.5-9.3l-17.6-10.1c-6.2-3.6-10.6-9.3-12.4-16.2c-1.8-6.9-0.9-14,2.7-20.2l8.7-15.1c3.6-6.2,9.3-10.6,16.2-12.4
			c6.9-1.8,14-0.9,20.2,2.7l17.6,10.1c5-3.7,10.5-6.8,16.2-9.4v-20.3c0-14.7,11.9-26.6,26.6-26.6h17.4c14.7,0,26.6,11.9,26.6,26.6
			v20.3c5.7,2.5,11.1,5.7,16.2,9.4l17.6-10.1c6.2-3.6,13.3-4.5,20.2-2.7c6.9,1.8,12.6,6.2,16.1,12.4l8.7,15.1
			c3.6,6.2,4.5,13.3,2.7,20.2s-6.2,12.6-12.4,16.1l-17.6,10.1c0.3,3.1,0.5,6.2,0.5,9.3c0,3.1-0.2,6.2-0.5,9.3l17.6,10.1
			c6.2,3.6,10.6,9.3,12.4,16.1s0.9,14-2.7,20.2l-8.7,15.1c-7.3,12.7-23.6,17.1-36.3,9.7l-17.6-10.1c-5,3.7-10.5,6.8-16.2,9.4v20.3
			C391.4,488.8,379.5,500.8,364.8,500.8z M304.7,424.2c3.8,0,7.6,1.2,10.8,3.6c4.4,3.3,9.2,6.1,14.3,8.2c6.6,2.8,10.9,9.3,10.9,16.6
			v21.5c0,3.6,3,6.6,6.6,6.6h17.4c3.6,0,6.6-3,6.6-6.6v-21.5c0-7.3,4.3-13.8,10.9-16.6c5.1-2.1,9.9-4.9,14.3-8.2
			c5.8-4.4,13.6-4.8,19.9-1.2l18.6,10.8c3.1,1.8,7.2,0.7,9-2.4l8.7-15.1c0.9-1.5,1.1-3.3,0.7-5s-1.5-3.1-3.1-4l-18.6-10.8
			c-6.3-3.6-9.8-10.6-8.9-17.8c0.3-2.7,0.5-5.5,0.5-8.2c0-2.7-0.2-5.5-0.5-8.2c-0.9-7.2,2.6-14.2,8.9-17.8l18.6-10.8
			c1.5-0.9,2.6-2.3,3.1-4s0.2-3.5-0.7-5l-8.7-15.1c-0.9-1.5-2.3-2.6-4-3.1c-1.7-0.5-3.5-0.2-5,0.7l-18.6,10.8
			c-6.3,3.6-14.1,3.2-19.9-1.2c-4.4-3.3-9.2-6.1-14.3-8.2c-6.7-2.8-10.9-9.3-10.9-16.6v-21.5c0-3.6-3-6.6-6.6-6.6h-17.4
			c-3.6,0-6.6,3-6.6,6.6v21.5c0,7.3-4.3,13.8-10.9,16.6c-5.1,2.1-9.9,4.9-14.3,8.2c-5.8,4.4-13.6,4.8-19.9,1.2L277,310.7
			c-1.5-0.9-3.3-1.1-5-0.7c-1.7,0.5-3.1,1.5-4,3.1l-8.7,15.1c-0.9,1.5-1.1,3.3-0.7,5s1.5,3.1,3.1,4l18.6,10.8
			c6.3,3.6,9.8,10.6,8.9,17.8c-0.3,2.7-0.5,5.5-0.5,8.2s0.2,5.5,0.5,8.2c0.9,7.2-2.6,14.2-8.9,17.8l-18.6,10.8
			c-1.5,0.9-2.6,2.3-3.1,4s-0.2,3.5,0.7,5L268,435c1.8,3.1,5.9,4.2,9,2.4l18.6-10.8C298.5,425,301.6,424.2,304.7,424.2z"/>
	</g>
</g>
<g>
	<g>
		<path class="setting-st0" d="M160.7,236.7c-11.1,0-22.4-2.8-32.7-8.8c-31.4-18.1-42.2-58.4-24-89.8s58.4-42.2,89.8-24
			c31.4,18.1,42.2,58.4,24,89.8C205.5,225,183.4,236.7,160.7,236.7z M160.9,125.3c-4,0-8,0.5-11.9,1.6
			c-11.8,3.2-21.6,10.7-27.8,21.3c-12.6,21.8-5.1,49.8,16.7,62.4c10.6,6.1,22.9,7.7,34.7,4.6c11.8-3.2,21.6-10.7,27.8-21.3
			c6.1-10.6,7.7-22.9,4.6-34.7s-10.7-21.6-21.3-27.8C176.6,127.4,168.8,125.3,160.9,125.3z"/>
	</g>
	<g>
		<path class="setting-st0" d="M171.9,334.4H149c-17.5,0-31.8-14.3-31.8-31.8v-28.2c0-0.3-0.1-0.5-0.3-0.5c-8.4-3.6-16.3-8.2-23.6-13.7
			c-0.1-0.1-0.4-0.1-0.6,0l-24.5,14.1c-7.4,4.2-15.9,5.4-24.1,3.2c-8.2-2.2-15.1-7.5-19.3-14.8l-11.4-19.8
			c-4.2-7.4-5.4-15.9-3.2-24.1c2.2-8.2,7.5-15.1,14.8-19.3l24.5-14.1c0.2-0.1,0.3-0.3,0.3-0.5c-0.6-4.5-0.8-9.1-0.8-13.6
			c0-4.5,0.3-9.1,0.8-13.6c0-0.2-0.1-0.4-0.3-0.5L25,142.9c-15.2-8.8-20.4-28.2-11.6-43.4l11.4-19.8c4.2-7.4,11.1-12.6,19.3-14.8
			c8.2-2.2,16.8-1.1,24.1,3.2l24.5,14.1c0.2,0.1,0.5,0.1,0.6,0c7.3-5.5,15.2-10.1,23.6-13.7c0.1-0.1,0.3-0.3,0.3-0.5V39.7
			c0-17.5,14.3-31.8,31.8-31.8h22.9c17.5,0,31.8,14.3,31.8,31.8V68c0,0.3,0.1,0.5,0.3,0.5c8.4,3.6,16.3,8.2,23.6,13.7
			c0.1,0.1,0.4,0.1,0.6,0L252.7,68c15.2-8.8,34.7-3.5,43.4,11.6l11.4,19.8c8.8,15.2,3.5,34.7-11.6,43.4L271.5,157
			c-0.2,0.1-0.3,0.3-0.3,0.5c0.6,4.5,0.8,9.1,0.8,13.6c0,4.5-0.3,9.1-0.8,13.6c0,0.2,0.1,0.4,0.3,0.5l24.5,14.1
			c15.2,8.8,20.4,28.2,11.6,43.4l-11.4,19.8c-8.8,15.2-28.2,20.4-43.4,11.6l-24.5-14.1c-0.2-0.1-0.5-0.1-0.6,0
			c-7.3,5.5-15.2,10.1-23.6,13.7c-0.1,0.1-0.3,0.3-0.3,0.5v28.2C203.7,320.2,189.5,334.4,171.9,334.4z M93.1,240.1
			c4.4,0,8.7,1.4,12.3,4.1c6,4.5,12.5,8.3,19.4,11.2c7.6,3.2,12.5,10.7,12.5,19v28.2c0,6.5,5.3,11.8,11.8,11.8h22.9
			c6.5,0,11.8-5.3,11.8-11.8v-28.2c0-8.3,4.9-15.7,12.5-19c6.9-2.9,13.4-6.7,19.4-11.2c6.6-5,15.5-5.5,22.7-1.3l24.5,14.1
			c5.6,3.2,12.9,1.3,16.1-4.3l11.4-19.8c3.2-5.6,1.3-12.9-4.3-16.1l-24.5-14.1c-7.2-4.1-11.2-12.1-10.2-20.3
			c0.5-3.7,0.7-7.5,0.7-11.2c0-3.7-0.2-7.5-0.7-11.2c-1-8.2,3-16.1,10.2-20.3l24.5-14.1c5.6-3.2,7.6-10.5,4.3-16.1l-11.4-19.8
			c-1.6-2.7-4.1-4.7-7.2-5.5c-3-0.8-6.2-0.4-8.9,1.2l-24.5,14.1c-7.2,4.2-16.1,3.6-22.7-1.3c-6-4.5-12.5-8.3-19.4-11.2
			c-7.6-3.2-12.5-10.6-12.5-19V39.7c0-6.5-5.3-11.8-11.8-11.8H149c-6.5,0-11.8,5.3-11.8,11.8V68c0,8.3-4.9,15.7-12.5,19
			c-6.9,2.9-13.4,6.7-19.4,11.2c-6.6,5-15.5,5.5-22.7,1.3L58.3,85.3c-2.7-1.6-5.9-2-8.9-1.2c-3,0.8-5.6,2.8-7.2,5.5l-11.4,19.8
			c-1.6,2.7-2,5.9-1.2,8.9c0.8,3,2.8,5.6,5.5,7.2l24.5,14.1c7.2,4.1,11.2,12.1,10.2,20.3c-0.5,3.7-0.7,7.5-0.7,11.2
			c0,3.7,0.2,7.5,0.7,11.2c1,8.2-3,16.1-10.2,20.3L35,216.8c-2.7,1.6-4.7,4.1-5.5,7.2s-0.4,6.2,1.2,8.9l11.4,19.8
			c1.6,2.7,4.1,4.7,7.2,5.5c3,0.8,6.2,0.4,8.9-1.2l24.5-14.1C86,241,89.5,240.1,93.1,240.1z"/>
	</g>
</g>
</svg>
