<svg data-name="Capa 1" xmlns="http://www.w3.org/2000/svg" viewBox="0 0 512 512"><defs><style>.cls-1{fill:#b0b3b5;}</style></defs><title>案2</title><path class="cls-1" d="M266.75,152.71H80.46a10.5,10.5,0,0,1,0-21H266.75a10.5,10.5,0,0,1,0,21Z"/><path class="cls-1" d="M266.75,207.74H80.46a10.5,10.5,0,1,1,0-21H266.75a10.5,10.5,0,0,1,0,21Z"/><path class="cls-1" d="M192.87,266.5H80.46a10.5,10.5,0,1,1,0-21H192.87a10.5,10.5,0,0,1,0,21Z"/><path class="cls-1" d="M144.92,325.26H80.46a10.5,10.5,0,1,1,0-21h64.46a10.5,10.5,0,0,1,0,21Z"/><path class="cls-1" d="M329.39,152.71H307.22a10.5,10.5,0,0,1,0-21h22.17a10.5,10.5,0,0,1,0,21Z"/><path class="cls-1" d="M497.26,88.6h0l-8.4-8.4a31.9,31.9,0,0,0-45.07,0l-48.7,48.69V33.32a15.42,15.42,0,0,0-15.4-15.41H20.81A15.42,15.42,0,0,0,5.41,33.32V478.68a15.42,15.42,0,0,0,15.4,15.41H379.69a15.42,15.42,0,0,0,15.4-15.41V235.84L497.26,133.67A31.9,31.9,0,0,0,497.26,88.6ZM26.41,38.91H374.09v32H26.41ZM374.09,473.09H26.41V91.88H374.09v58L197.71,326.28a10.3,10.3,0,0,0-2.27,3.4l-27.41,66a10.5,10.5,0,0,0,13.72,13.72l66-27.41a10.56,10.56,0,0,0,3.4-2.27L374.09,256.84ZM237.81,363.43,197.16,380.3,214,339.65,417.82,135.86l23.78,23.77Zm244.6-244.61-26,26L432.67,121l26-26a10.88,10.88,0,0,1,15.37,0l8.4,8.39h0A10.88,10.88,0,0,1,482.41,118.82Z"/></svg>