<svg xmlns="http://www.w3.org/2000/svg" height="512px" viewBox="0 0 496 496" width="512px" class=""><g><path d="m496 366.777344v-77.546875l-31.871094-5.308594c-1.191406-3.21875-2.535156-6.441406-4.03125-9.648437l18.804688-26.328126-54.839844-54.839843-26.328125 18.816406c-3.207031-1.507813-6.429687-2.84375-9.644531-4.042969l-4.089844-24.542968v-114.648438l-68.6875-68.6875h-187.3125v64h-104v176h-8c-8.824219 0-16 7.175781-16 16v224c0 8.824219 7.175781 16 16 16h288c8.824219 0 16-7.175781 16-16h62.777344l5.3125-31.863281c3.207031-1.191407 6.429687-2.535157 9.644531-4.039063l26.328125 18.8125 54.839844-54.839844-18.804688-26.328124c1.496094-3.207032 2.839844-6.429688 4.03125-9.644532zm-176-339.464844 36.6875 36.6875h-36.6875zm-176-11.3125h160v64h64v96h-62.777344l-5.3125 31.863281c-3.207031 1.191407-6.429687 2.535157-9.644531 4.039063l-10.265625-7.335938v-60.566406h72v-16h-72v-16h72v-16h-72v-32h-136zm-104 64h224v113.136719l-.054688-.039063-6.511718 6.511719c-4.386719-4.65625-10.554688-7.609375-17.433594-7.609375h-160c-13.230469 0-24 10.769531-24 24v24h-16zm32 160v-24c0-4.414062 3.59375-8 8-8h160c4.40625 0 8 3.585938 8 8v24zm232 16v35.472656l-104 62.398438v-1.871094c0-8.824219-7.175781-16-16-16h-48c-8.824219 0-16 7.175781-16 16v1.871094l-104-62.398438v-35.472656zm16 30.566406c7.289062-4.222656 15.480469-6.566406 24-6.566406 26.472656 0 48 21.527344 48 48s-21.527344 48-48 48c-8.535156 0-16.710938-2.34375-24-6.574219zm0 100.585938c7.585938 3.078125 15.65625 4.847656 24 4.847656 35.289062 0 64-28.710938 64-64s-28.710938-64-64-64c-8.335938 0-16.414062 1.753906-24 4.832031v-12.832031c0-1.433594-.246094-2.792969-.609375-4.113281 7.90625-2.558594 16.136719-3.886719 24.609375-3.886719 44.113281 0 80 35.886719 80 80s-35.886719 80-80 80c-8.222656 0-16.265625-1.296875-24-3.734375zm-135.992188-3.152344h-48.007812v-32h48zm-168.007812 96v-16h240v-16h-240v-137.871094l104 62.398438v11.472656c0 8.824219 7.175781 16 16 16h48c8.824219 0 16-7.175781 16-16v-11.472656l104-62.398438.007812 137.871094h-32.007812v16h32.007812v16zm442-73.671875-35.664062 35.671875-23.136719-16.519531-4.335938 2.207031c-5.457031 2.792969-10.953125 5.089844-16.351562 6.832031l-4.625 1.503907-4.664063 27.976562h-49.222656v-43.113281c7.800781 2.015625 15.824219 3.113281 24 3.113281 52.9375 0 96-43.0625 96-96s-43.0625-96-96-96c-13.441406 0-26.390625 2.785156-38.574219 8.144531-.472656-.039062-.9375-.144531-1.425781-.144531h-40v-24c0-.105469-.03125-.199219-.03125-.304688l1.695312-1.695312 23.136719 16.519531 4.335938-2.207031c5.457031-2.792969 10.953125-5.089844 16.351562-6.832031l4.625-1.503907 4.664063-27.976562h50.445312l4.664063 27.976562 4.625 1.503907c5.398437 1.75 10.894531 4.046875 16.351562 6.832031l4.335938 2.207031 23.136719-16.519531 35.664062 35.671875-16.519531 23.136719 2.207031 4.328125c2.785156 5.449219 5.082031 10.941406 6.832031 16.359375l1.496094 4.625 27.984375 4.65625v50.453125l-27.984375 4.65625-1.496094 4.625c-1.75 5.417969-4.054687 10.914062-6.832031 16.359375l-2.207031 4.328125zm0 0" data-original="#000000" class="active-path" data-old_color="#HTTPS:" fill="#B0B3B5"/><path d="m336 200h16v16h-16zm0 0" data-original="#000000" class="active-path" data-old_color="#HTTPS:" fill="#B0B3B5"/><path d="m417.539062 243.148438 11.3125-11.3125 11.316407 11.3125-11.316407 11.3125zm0 0" data-original="#000000" class="active-path" data-old_color="#HTTPS:" fill="#B0B3B5"/><path d="m456 320h16v16h-16zm0 0" data-original="#000000" class="active-path" data-old_color="#HTTPS:" fill="#B0B3B5"/><path d="m417.539062 412.851562 11.3125-11.3125 11.3125 11.3125-11.3125 11.3125zm0 0" data-original="#000000" class="active-path" data-old_color="#HTTPS:" fill="#B0B3B5"/><path d="m336 440h16v16h-16zm0 0" data-original="#000000" class="active-path" data-old_color="#HTTPS:" fill="#B0B3B5"/><path d="m56 96h192v16h-192zm0 0" data-original="#000000" class="active-path" data-old_color="#HTTPS:" fill="#B0B3B5"/><path d="m56 128h16v16h-16zm0 0" data-original="#000000" class="active-path" data-old_color="#HTTPS:" fill="#B0B3B5"/><path d="m88 128h16v16h-16zm0 0" data-original="#000000" class="active-path" data-old_color="#HTTPS:" fill="#B0B3B5"/><path d="m120 128h128v16h-128zm0 0" data-original="#000000" class="active-path" data-old_color="#HTTPS:" fill="#B0B3B5"/><path d="m56 160h192v16h-192zm0 0" data-original="#000000" class="active-path" data-old_color="#HTTPS:" fill="#B0B3B5"/><path d="m160 32h16v16h-16zm0 0" data-original="#000000" class="active-path" data-old_color="#HTTPS:" fill="#B0B3B5"/><path d="m192 32h64v16h-64zm0 0" data-original="#000000" class="active-path" data-old_color="#HTTPS:" fill="#B0B3B5"/><path d="m272 32h16v16h-16zm0 0" data-original="#000000" class="active-path" data-old_color="#HTTPS:" fill="#B0B3B5"/></g> </svg>
