<svg data-name="Capa 1" xmlns="http://www.w3.org/2000/svg" viewBox="0 0 512 512"><defs><style>.cls-1{fill:#b0b3b5;}</style></defs><title>案2</title><path class="cls-1" d="M418.08,499.11H93.92A42.94,42.94,0,0,1,51,456.21V354.51a10.5,10.5,0,0,1,21,0v101.7a21.92,21.92,0,0,0,21.9,21.9H418.08a21.92,21.92,0,0,0,21.9-21.9V354.51a10.5,10.5,0,0,1,21,0v101.7A42.94,42.94,0,0,1,418.08,499.11Z"/><path class="cls-1" d="M405.77,166.8,263.64,16.18l-.11-.1-.22-.23a.94.94,0,0,1-.1-.1l-.17-.14-.28-.25-.23-.19-.31-.24-.29-.2c-.07-.06-.15-.1-.23-.16l-.36-.22-.28-.16-.24-.13-.4-.19-.27-.13-.27-.1-.42-.16-.26-.09-.29-.09-.42-.11-.27-.07-.3,0L257.5,13l-.31,0-.29,0-.4,0h-1l-.4,0-.29,0-.31,0-.42.07-.29,0-.28.07-.42.11-.29.09-.26.09-.42.16-.27.1-.27.13-.4.19-.24.13-.28.16-.36.22c-.08.06-.16.1-.23.16l-.29.2-.31.24-.23.19-.28.25-.17.14-.1.1-.22.23-.11.1L106.23,166.8a10.5,10.5,0,1,0,15.27,14.41l124-131.4v380.3a10.5,10.5,0,0,0,21,0V49.81l124,131.4a10.5,10.5,0,0,0,15.27-14.41Z"/></svg>