<svg xmlns="http://www.w3.org/2000/svg" viewBox="0 0 419.9 485.7"><path d="M301.7 312h-200c-2.1 0-4.2.8-5.7 2.3l-96 96 11.3 11.3L105 328h187.9c-1.7 9.5-6.9 24-23.2 24h-88v16h88c31.6 0 40-31.4 40-48 0-4.4-3.6-8-8-8z"  fill="#B0B3B5"/><path d="M403.3 258.3c-3.1-3.1-8.2-3.1-11.3 0l-72 72 11.3 11.3 65.7-65.7c10.8 14.4 8.6 34.7-5 46.4L298.3 416H133.7c-2.1 0-4.2.8-5.7 2.3l-56 56 11.3 11.3L137 432h164.7c2.1 0 4.2-.8 5.7-2.3l96-96c29.7-29.8 12.9-62.3-.1-75.4zM357.7 112h-28.8c-2.2-7.3-5.1-14.4-8.8-21.2l20.3-20.3c3.1-3.1 3.1-8.2 0-11.3l-34-33.9c-3.1-3.1-8.2-3.1-11.3 0l-20.3 20.3c-6.7-3.7-13.8-6.6-21.2-8.8V8c0-4.4-3.6-8-8-8h-48c-4.4 0-8 3.6-8 8v28.8c-7.3 2.2-14.5 5.1-21.2 8.8l-20.3-20.3c-3.1-3.1-8.2-3.1-11.3 0l-34 33.9c-3.1 3.1-3.1 8.2 0 11.3l20.4 20.3c-3.7 6.7-6.6 13.8-8.8 21.2H85.7c-4.4 0-8 3.6-8 8v48c0 4.4 3.6 8 8 8h28.8c2.2 7.3 5.1 14.4 8.8 21.2L103 217.5c-3.1 3.1-3.1 8.2 0 11.3l34 34c3.2 3 8.1 3 11.3 0l20.3-20.4c6.7 3.7 13.8 6.6 21.2 8.8V280c0 4.4 3.6 8 8 8h48c4.4 0 8-3.6 8-8v-28.8c7.3-2.2 14.4-5.1 21.2-8.8l20.3 20.3c1.5 1.5 3.5 2.3 5.7 2.3s4.2-.8 5.7-2.3l33.9-34c3.1-3.1 3.1-8.2 0-11.3l-20.3-20.3c3.7-6.7 6.6-13.8 8.8-21.2h28.8c4.4 0 8-3.6 8-8v-48c-.2-4.3-3.8-7.9-8.2-7.9zm-8 48h-26.9c-3.7 0-6.9 2.6-7.8 6.2-2.4 9.9-6.3 19.4-11.7 28.1-2 3.2-1.5 7.2 1.2 9.9l19 19-22.6 22.6-19-19c-2.6-2.6-6.7-3.1-9.9-1.2-8.7 5.4-18.2 9.3-28.1 11.7-3.6.9-6.2 4.1-6.2 7.8V272h-32v-26.9c0-3.7-2.6-6.9-6.2-7.8-9.9-2.4-19.4-6.3-28.1-11.7-3.2-1.9-7.2-1.5-9.9 1.2l-19 19-22.6-22.6 19-19c2.6-2.6 3.1-6.7 1.2-9.9-5.4-8.7-9.3-18.2-11.7-28.1-.9-3.6-4.1-6.2-7.8-6.2H93.7v-32h26.9c3.7 0 6.9-2.6 7.8-6.2 2.4-9.9 6.3-19.4 11.7-28.1 1.9-3.2 1.5-7.2-1.2-9.9l-19-19 22.6-22.6 19 19c2.6 2.6 6.7 3.1 9.9 1.2 8.7-5.4 18.2-9.3 28.1-11.7 3.6-.9 6.2-4.1 6.2-7.8V16h32v26.9c0 3.7 2.6 6.9 6.2 7.8 9.9 2.4 19.5 6.3 28.1 11.7 3.2 1.9 7.2 1.5 9.9-1.2l19-19 22.6 22.6-19 19c-2.6 2.6-3.1 6.7-1.2 9.9 5.4 8.7 9.3 18.2 11.7 28.1.9 3.6 4.1 6.2 7.8 6.2h26.9v32z"  fill="#B0B3B5"/><path d="M221.7 96c-26.5 0-48 21.5-48 48s21.5 48 48 48 48-21.5 48-48-21.5-48-48-48zm0 80c-17.7 0-32-14.3-32-32s14.3-32 32-32 32 14.3 32 32-14.4 32-32 32z"  fill="#B0B3B5"/></svg>